HIERARCHY
ROOT Beta:Hips
{
	OFFSET 0.00 0.00 0.00
	CHANNELS 6 Xposition Yposition Zposition Yrotation Xrotation Zrotation
	JOINT Beta:Spine
	{
		OFFSET	0.0000	9.2263	1.5771
		CHANNELS 3 Xrotation Yrotation Zrotation
		JOINT Beta:Spine1
		{
			OFFSET	0.0000	16.2540	-0.1656
			CHANNELS 3 Xrotation Yrotation Zrotation
			JOINT Beta:Spine2
			{
				OFFSET	0.0000	13.6396	-1.2923
				CHANNELS 3 Xrotation Yrotation Zrotation
				JOINT Beta:Neck
				{
					OFFSET	0.0000	13.8774	-4.3542
					CHANNELS 3 Xrotation Yrotation Zrotation
					JOINT Beta:Neck1
					{
						OFFSET	0.0000	4.3400	0.9269
						CHANNELS 3 Xrotation Yrotation Zrotation
						JOINT Beta:Head
						{
							OFFSET	0.0000	4.0266	0.8585
							CHANNELS 3 Xrotation Yrotation Zrotation
							End Site
							{
								OFFSET 0.0000 23.0297 0.1231
							}
						}
					}
				}
				JOINT Beta:LeftShoulder
				{
					OFFSET	6.1442	10.1870	-3.7932
					CHANNELS 3 Zrotation Xrotation Yrotation
					JOINT Beta:LeftArm
					{
						OFFSET	12.3191	-1.1130	-1.7935
						CHANNELS 3 Zrotation Xrotation Yrotation
						JOINT Beta:LeftForeArm
						{
							OFFSET	27.6870	0.0000	0.0000
							CHANNELS 3 Xrotation Zrotation Yrotation
							JOINT Beta:LeftHand
							{
								OFFSET	27.8738	0.0000	0.0000
								CHANNELS 3 Zrotation Yrotation Xrotation
								JOINT Beta:LeftHandThumb1
								{
									OFFSET	2.3785	-1.0029	2.6209
									CHANNELS 3 Zrotation Xrotation Yrotation
									JOINT Beta:LeftHandThumb2
									{
										OFFSET	3.3624	-1.0029	2.8398
										CHANNELS 3 Zrotation Xrotation Yrotation
										JOINT Beta:LeftHandThumb3
										{
											OFFSET	4.5018	-1.3445	2.1783
											CHANNELS 3 Zrotation Xrotation Yrotation
											End Site
											{
												OFFSET 2.6000 -1.0000 1.0000
											}
										}
									}
								}
								JOINT Beta:LeftHandMiddle1
								{
									OFFSET	10.4639	0.6148	0.4298
									CHANNELS 3 Zrotation Xrotation Yrotation
									JOINT Beta:LeftHandMiddle2
									{
										OFFSET	5.7921	0.0000	0.0000
										CHANNELS 3 Zrotation Xrotation Yrotation
										JOINT Beta:LeftHandMiddle3
										{
											OFFSET	3.7132	0.0000	0.0000
											CHANNELS 3 Zrotation Xrotation Yrotation
											End Site
											{
												OFFSET 2.3000 0.0000 0.0000
											}
										}
									}
								}
								JOINT Beta:LeftHandIndex1
								{
									OFFSET	10.3945	0.6148	2.7055
									CHANNELS 3 Zrotation Xrotation Yrotation
									JOINT Beta:LeftHandIndex2
									{
										OFFSET	5.5493	0.0000	0.0000
										CHANNELS 3 Zrotation Xrotation Yrotation
										JOINT Beta:LeftHandIndex3
										{
											OFFSET	3.3911	0.0000	0.0000
											CHANNELS 3 Zrotation Xrotation Yrotation
											End Site
											{
												OFFSET 2.5000 0.0000 0.0000
											}
										}
									}
								}
								JOINT Beta:LeftHandRing1
								{
									OFFSET	10.3252	0.3211	-1.8755
									CHANNELS 3 Zrotation Xrotation Yrotation
									JOINT Beta:LeftHandRing2
									{
										OFFSET	5.4452	0.0000	0.0000
										CHANNELS 3 Zrotation Xrotation Yrotation
										JOINT Beta:LeftHandRing3
										{
											OFFSET	3.7132	0.0000	0.0000
											CHANNELS 3 Zrotation Xrotation Yrotation
											End Site
											{
												OFFSET 2.0000 0.0000 0.0000
											}
										}
									}
								}
								JOINT Beta:LeftHandPinky1
								{
									OFFSET	10.0130	-0.0783	-3.9671
									CHANNELS 3 Zrotation Xrotation Yrotation
									JOINT Beta:LeftHandPinky2
									{
										OFFSET	3.6763	0.0000	0.0000
										CHANNELS 3 Zrotation Xrotation Yrotation
										JOINT Beta:LeftHandPinky3
										{
											OFFSET	2.8113	0.0000	0.0000
											CHANNELS 3 Zrotation Xrotation Yrotation
											End Site
											{
												OFFSET 2.9000 0.0000 0.0000
											}
										}
									}
								}
							}
						}
					}
				}
				JOINT Beta:RightShoulder
				{
					OFFSET	-6.1402	10.1870	-3.7932
					CHANNELS 3 Zrotation Xrotation Yrotation
					JOINT Beta:RightArm
					{
						OFFSET	-12.3231	-1.1130	-1.7935
						CHANNELS 3 Zrotation Xrotation Yrotation
						JOINT Beta:RightForeArm
						{
							OFFSET	-27.6870	0.0000	0.0000
							CHANNELS 3 Xrotation Zrotation Yrotation
							JOINT Beta:RightHand
							{
								OFFSET	-27.8738	0.0000	0.0000
								CHANNELS 3 Zrotation Yrotation Xrotation
								JOINT Beta:RightHandThumb1
								{
									OFFSET	-2.5178	-0.9367	2.5137
									CHANNELS 3 Zrotation Xrotation Yrotation
									JOINT Beta:RightHandThumb2
									{
										OFFSET	-3.2638	-1.0870	2.9669
										CHANNELS 3 Zrotation Xrotation Yrotation
										JOINT Beta:RightHandThumb3
										{
											OFFSET	-4.4165	-1.3703	2.1350
											CHANNELS 3 Zrotation Xrotation Yrotation
											End Site
											{
												OFFSET -2.6000 -1.0000 1.0000
											}
										}
									}
								}
								JOINT Beta:RightHandIndex1
								{
									OFFSET	-10.4665	0.4896	2.7120
									CHANNELS 3 Zrotation Xrotation Yrotation
									JOINT Beta:RightHandIndex2
									{
										OFFSET	-5.3768	0.0000	0.0000
										CHANNELS 3 Zrotation Xrotation Yrotation
										JOINT Beta:RightHandIndex3
										{
											OFFSET	-3.3855	0.0000	0.0000
											CHANNELS 3 Zrotation Xrotation Yrotation
											End Site
											{
												OFFSET -2.6000 0.0000 0.0000
											}
										}
									}
								}
								JOINT Beta:RightHandMiddle1
								{
									OFFSET	-10.7596	0.4896	0.4278
									CHANNELS 3 Zrotation Xrotation Yrotation
									JOINT Beta:RightHandMiddle2
									{
										OFFSET	-5.6168	0.0000	0.0000
										CHANNELS 3 Zrotation Xrotation Yrotation
										JOINT Beta:RightHandMiddle3
										{
											OFFSET	-3.7364	0.0000	0.0000
											CHANNELS 3 Zrotation Xrotation Yrotation
											End Site
											{
												OFFSET -2.3000 0.0000 0.0000
											}
										}
									}
								}
								JOINT Beta:RightHandRing1
								{
									OFFSET	-10.4702	0.3879	-1.9363
									CHANNELS 3 Zrotation Xrotation Yrotation
									JOINT Beta:RightHandRing2
									{
										OFFSET	-5.4013	0.0000	0.0000
										CHANNELS 3 Zrotation Xrotation Yrotation
										JOINT Beta:RightHandRing3
										{
											OFFSET	-3.3916	0.0000	0.0000
											CHANNELS 3 Zrotation Xrotation Yrotation
											End Site
											{
												OFFSET -2.2000 0.0000 0.0000
											}
										}
									}
								}
								JOINT Beta:RightHandPinky1
								{
									OFFSET	-9.9715	-0.1191	-3.9540
									CHANNELS 3 Zrotation Xrotation Yrotation
									JOINT Beta:RightHandPinky2
									{
										OFFSET	-3.6528	0.0000	0.0000
										CHANNELS 3 Zrotation Xrotation Yrotation
										JOINT Beta:RightHandPinky3
										{
											OFFSET	-2.7820	0.0000	0.0000
											CHANNELS 3 Zrotation Xrotation Yrotation
											End Site
											{
												OFFSET -2.9000 0.0000 0.0000
											}
										}
									}
								}
							}
						}
					}
				}
			}
		}
	}
	JOINT Beta:LeftUpLeg
	{
		OFFSET	9.6338	-3.2733	0.0000
		CHANNELS 3 Xrotation Yrotation Zrotation
		JOINT Beta:LeftLeg
		{
			OFFSET	0.0000	-41.7300	-1.7300
			CHANNELS 3 Xrotation Yrotation Zrotation
			JOINT Beta:LeftFoot
			{
				OFFSET	0.0126	-39.1900	-0.8477
				CHANNELS 3 Xrotation Yrotation Zrotation
				JOINT Beta:LeftToeBase
				{
					OFFSET	-0.1833	-12.1931	8.2823
					CHANNELS 3 Xrotation Yrotation Zrotation
					End Site
					{
						OFFSET 0.0000 0.0000 10.1681
					}
				}
			}
		}
	}
	JOINT Beta:RightUpLeg
	{
		OFFSET	-9.6338	-3.2733	0.0000
		CHANNELS 3 Xrotation Yrotation Zrotation
		JOINT Beta:RightLeg
		{
			OFFSET	0.0000	-41.7300	-1.7300
			CHANNELS 3 Xrotation Yrotation Zrotation
			JOINT Beta:RightFoot
			{
				OFFSET	0.0126	-39.1900	-0.8477
				CHANNELS 3 Xrotation Yrotation Zrotation
				JOINT Beta:RightToeBase
				{
					OFFSET	-0.1833	-12.1931	8.2823
					CHANNELS 3 Xrotation Yrotation Zrotation
					End Site
					{
						OFFSET 0.0032 0.0000 10.1681
					}
				}
			}
		}
	}
}
MOTION
Frames: 9
Frame Time: 0.0333333
-0.0022 82.4326 -0.0000 -18.8341 19.8829 -9.4964 15.0642 11.6247 0.4644 1.1254 3.0435 0.7188 1.1611 3.0035 0.6983 -7.3979 -1.7156 1.3620 -0.0000 0.0000 -0.0000 -24.4629 4.4225 -3.8247 -12.3536 0.0637 3.1761 -63.1001 4.0346 44.4918 -0.0000 -0.0000 -65.6527 14.6501 -12.7030 18.5125 13.9430 -2.0504 3.9921 -15.6107 2.3307 13.7549 10.3534 2.2351 -25.0770 -44.9398 0.0000 -8.7521 -66.2312 -0.0000 0.0000 -33.6904 -0.0000 0.0000 -24.0413 2.9857 -15.7456 -79.0576 0.0000 0.0000 -30.5759 -0.0000 0.0000 -48.4897 0.0000 -7.3621 -77.0289 -0.0000 0.0000 -28.8742 0.0000 0.0000 -54.3466 -0.0000 -5.2535 -57.6450 -0.0000 0.0000 -33.9176 0.0000 0.0000 18.5052 3.3714 9.8794 39.8870 -7.7794 30.6619 -0.0000 -0.0000 101.3919 -3.5328 10.8801 38.8957 4.4454 -3.8478 -5.1399 4.1176 9.8094 -10.3881 2.8713 -3.0307 28.6540 58.1525 0.7262 8.3392 60.8674 0.0000 -0.0000 34.8912 -0.0000 -0.0000 60.7688 0.0000 6.8895 71.8935 0.0000 -0.0000 55.1408 0.0000 0.0000 74.7025 0.0000 8.8902 77.7503 0.0000 -0.0000 44.1278 0.0000 0.0000 79.5058 -0.0000 6.1449 81.2447 0.0000 0.0000 71.3987 0.0000 0.0000 -73.0574 -0.0425 18.0910 122.0491 -0.8650 0.9577 -5.6953 -0.8143 13.6443 -6.0087 -0.0000 0.0000 -27.3756 0.8608 3.3649 53.9879 7.2234 -3.9287 -36.2584 -1.2992 3.3404 -10.9732 -0.0000 -0.0000 
0.5458 83.3949 13.3653 -15.5403 20.5336 -4.0375 14.5042 14.2498 -4.4973 0.8697 4.0772 0.0551 0.8936 4.0556 0.0363 -7.5171 -2.4040 0.7245 -0.0000 0.0000 -0.0000 -23.5733 -3.7237 -4.0619 -10.3850 -0.0077 3.5479 -58.9937 6.7653 54.4446 -0.0000 0.0000 -72.4634 14.5607 -12.4457 17.8167 13.9429 -2.0504 3.9921 -15.5554 2.3598 13.6296 9.2413 2.3305 -24.3860 -45.1788 0.0000 -9.4415 -66.6267 -0.0000 -0.0000 -33.8061 -0.0000 0.0000 -23.3359 3.3303 -15.7657 -80.3963 -0.0000 0.0000 -30.5415 0.0000 -0.0000 -48.0411 -0.0000 -7.4350 -77.9823 0.0000 -0.0000 -28.5905 -0.0000 0.0000 -53.2947 -0.0000 -5.4475 -58.1341 -0.0000 0.0000 -33.9386 -0.0000 0.0000 15.3716 2.6145 8.2292 37.1812 -13.6207 35.0682 -0.0000 0.0000 108.3181 -28.3057 16.4476 44.4331 4.4454 -3.8478 -5.1399 3.6382 9.6024 -9.4254 2.9391 -3.0913 28.5024 59.9620 1.2294 9.0555 60.8165 -0.0000 -0.0000 35.0263 0.0000 -0.0000 61.6837 0.0000 4.9383 71.1105 0.0000 0.0000 55.6603 0.0000 0.0000 73.5160 -0.0000 9.1799 79.4118 -0.0000 -0.0000 44.6706 0.0000 -0.0000 78.8051 -0.0000 6.5050 83.5528 -0.0000 -0.0000 71.8904 0.0000 -0.0000 -83.4276 1.4164 14.7072 114.2402 -2.9045 0.7322 -9.0353 -0.8225 14.0436 0.8970 -0.0000 -0.0000 -13.6914 -2.3001 -4.5011 39.9783 9.2828 -5.8233 -23.4272 0.8392 6.0201 -24.1922 -0.0000 0.0000 
0.8468 84.7577 27.0641 -8.7434 22.6801 2.3947 12.5920 14.7103 -8.9761 0.6691 4.4837 -0.6410 0.6659 4.4847 -0.6512 -7.5505 -2.9002 -0.0083 -0.0000 0.0000 -0.0000 -20.7987 -11.7074 -3.4746 -9.3437 0.4917 0.5651 -53.6692 9.8822 61.8130 0.0000 0.0000 -79.0244 11.6105 -11.5554 17.2153 13.9430 -2.0504 3.9921 -15.3125 2.4545 13.0976 10.7912 2.2029 -25.2832 -44.1860 0.0001 -10.6243 -66.9942 0.0000 0.0000 -34.1742 0.0000 0.0000 -19.6402 3.8674 -15.4240 -81.4646 0.0000 0.0000 -30.4026 0.0000 -0.0000 -47.7261 -0.0000 -7.3314 -78.4708 -0.0000 0.0000 -28.7722 -0.0000 0.0000 -53.5500 -0.1455 -5.0087 -58.0967 -0.0000 0.0000 -34.0852 -0.0000 0.0000 13.4025 1.8155 5.3383 36.0396 -22.8387 29.2439 -0.0000 0.0000 119.3121 -19.0602 13.4544 37.5912 4.4454 -3.8478 -5.1399 4.3241 9.8709 -10.7969 2.0502 -2.7624 29.2206 59.1444 1.4316 8.6030 59.5204 -0.0000 -0.0000 35.5581 0.0000 -0.0000 60.7890 0.0003 5.9037 70.1515 0.0000 -0.0000 55.9120 -0.0000 0.0000 73.3636 -0.0001 8.2981 76.8547 -0.0000 -0.0000 44.2822 0.0000 0.0000 79.1156 -0.0663 6.0903 81.6443 -0.0000 -0.0000 71.1769 0.0000 -0.0000 -89.0150 4.2455 7.9327 99.6015 -2.0225 0.5930 -8.6740 -0.2194 8.2713 0.3444 0.0000 0.0000 -0.9176 -9.0306 -10.5707 20.5297 9.4856 -5.1617 -2.2898 0.0561 10.0785 -28.7194 -0.0094 0.5942 
0.8601 85.9429 40.9046 -2.0985 24.1254 5.7507 10.4314 14.1127 -10.2041 0.5888 4.3595 -1.1695 0.5628 4.3714 -1.1833 -7.3749 -3.3310 -0.1857 -0.0000 0.0000 -0.0000 -19.6691 -17.3068 -2.2199 -9.1419 0.7724 -1.1699 -51.0580 14.4698 64.3422 0.0000 0.0000 -82.5166 11.7804 -11.9390 16.6612 13.9429 -2.0504 3.9921 -15.4988 2.4531 13.4638 11.4685 2.1446 -25.7414 -44.2083 -0.0001 -12.0243 -66.9555 0.0000 0.0000 -34.6599 -0.0000 0.0000 -15.8458 4.5387 -14.9761 -80.6622 0.0000 0.0000 -30.5109 0.0000 0.0000 -48.2348 -0.0000 -7.8007 -78.5339 -0.0000 0.0000 -29.8248 -0.0000 0.0000 -54.5332 -0.1009 -5.2595 -57.8360 -0.0000 -0.0000 -34.5529 0.0000 0.0000 14.7819 1.4470 3.1200 32.2840 -27.8734 23.2893 0.0000 0.0000 125.5224 -6.8433 11.6232 32.3576 4.4454 -3.8478 -5.1399 5.8815 10.0027 -13.8531 0.4643 -2.1125 30.5916 57.3986 1.7235 8.0184 57.5963 0.0000 -0.0000 36.7078 -0.0000 0.0000 59.2802 0.0001 6.8473 69.0126 0.0000 -0.0000 56.1239 0.0000 0.0000 72.4779 -0.0000 7.4773 73.2510 -0.0000 0.0000 43.6340 0.0000 -0.0000 78.6075 -0.3155 5.8221 79.6400 0.0000 0.0000 70.2157 0.0000 -0.0000 -89.0155 4.2876 1.5451 81.2064 1.0118 0.4085 -6.3723 0.3794 0.5039 0.4687 0.0000 -0.0000 10.1706 -12.1557 -9.3350 6.6630 3.4054 -4.8019 15.5890 1.3657 14.4553 -11.4709 0.0000 0.0000 
0.9863 86.8040 54.9579 2.6680 24.4034 5.0087 8.2770 12.7819 -7.6933 0.5258 3.8316 -1.1658 0.5003 3.8421 -1.1789 -6.9635 -3.5781 0.0679 -0.0000 0.0000 -0.0000 -19.0805 -19.6155 -0.8294 -9.8766 0.8112 -1.2280 -51.4147 16.3074 61.6304 -0.0000 -0.0000 -82.5778 13.1704 -12.1763 16.4797 13.9429 -2.0504 3.9921 -16.0829 2.3474 14.6702 11.8250 2.1101 -26.0821 -44.1832 0.0002 -13.2920 -67.3567 0.0000 0.0000 -35.7680 0.0000 -0.0000 -11.8489 5.1212 -14.3648 -82.0036 -0.0000 0.0000 -30.8544 0.0000 -0.0000 -48.8241 -0.0000 -7.8220 -79.0185 -0.0000 -0.0000 -31.2304 0.0000 0.0000 -54.7734 -0.0592 -5.5071 -57.8251 0.0000 -0.0000 -35.6136 -0.0000 0.0000 16.8010 1.4981 2.8349 27.5110 -23.2134 17.4505 0.0000 -0.0000 125.6170 -7.0837 8.1725 34.7480 4.4454 -3.8478 -5.1399 7.4087 9.9998 -16.7868 0.1491 -1.8451 31.1281 56.5151 2.1610 7.6789 57.6178 0.0000 -0.0000 36.6921 0.0000 0.0000 59.6961 -0.0000 7.0900 68.8611 -0.0000 0.0000 56.3865 0.0000 0.0000 72.8260 -0.0000 7.7050 73.2429 0.0000 -0.0000 43.8411 0.0000 0.0000 78.5816 -0.0710 6.0751 79.5025 0.0000 -0.0000 70.5612 0.0000 0.0000 -84.2935 1.9780 -1.6686 62.4286 1.5686 0.0574 -3.6689 0.7456 -6.9860 0.2307 -0.0000 0.0000 12.0920 -8.1851 -4.3618 18.5663 2.4500 -4.9602 12.8734 1.3125 17.7775 -2.7374 -0.0000 0.0000 
1.2294 86.6622 68.7422 5.2973 22.8534 3.7008 8.2020 10.5462 -5.5598 0.7601 3.1156 -0.9144 0.7462 3.1190 -0.9362 -6.4881 -3.4891 0.2711 -0.0000 0.0000 -0.0000 -18.8960 -19.3752 0.8377 -12.0650 0.8114 -0.7661 -52.1213 15.6092 55.0689 -0.0000 0.0000 -82.8958 14.5735 -12.6895 16.6703 13.9430 -2.0504 3.9921 -16.5825 2.2432 15.7057 13.6706 1.9990 -27.2995 -41.8619 0.0005 -14.3816 -69.4652 0.0000 -0.0000 -37.3930 0.0000 -0.0000 -5.1915 5.8376 -14.3785 -82.9708 0.0000 0.0000 -31.1752 0.0000 -0.0000 -48.9448 -0.0002 -7.6116 -82.1508 -0.0000 -0.0000 -33.1842 0.0000 -0.0000 -51.9232 -0.1208 -5.4635 -58.4108 0.0000 0.0000 -37.4409 -0.0000 0.0000 16.8421 1.8757 4.4110 26.8355 -12.8337 11.2683 -0.0000 -0.0000 121.4784 -8.4389 3.9613 37.8292 4.4454 -3.8478 -5.1399 5.2942 9.9999 -12.7090 0.9057 -2.2383 30.1581 54.7502 2.4942 7.2677 57.5243 -0.0000 0.0000 36.3505 -0.0000 0.0000 59.5003 0.0001 7.5005 68.8260 0.0000 0.0000 57.7035 0.0000 -0.0000 72.3601 0.0000 8.1720 73.0532 0.0000 -0.0000 45.3841 0.0000 0.0000 77.9951 0.0001 6.4478 79.2263 0.0000 -0.0000 71.4689 0.0000 -0.0000 -77.0410 0.2898 -2.3216 49.6576 2.3958 -0.6454 -2.8989 0.9989 -11.8448 -0.3971 0.0000 0.0000 9.0921 -4.7995 -0.7973 41.3591 6.8001 -3.0003 8.7508 0.7690 19.2207 -6.0970 0.0000 0.0000 
1.5121 85.8726 82.5474 6.3160 20.2707 4.0182 9.7739 8.8584 -6.0625 1.4251 2.6662 -0.9456 1.4132 2.6593 -0.9860 -6.0981 -3.3632 0.4346 -0.0000 0.0000 -0.0000 -20.5430 -18.9923 2.2473 -14.8346 1.0147 -1.2447 -51.1144 14.8065 42.9798 0.0000 -0.0000 -83.1206 15.1883 -13.1339 17.3338 13.9430 -2.0504 3.9921 -16.7865 2.2058 16.1275 16.5465 1.8557 -29.0621 -38.0716 -0.0001 -14.0162 -70.9758 0.0000 -0.0000 -38.4292 -0.0000 -0.0000 2.0152 6.0321 -13.8519 -83.5154 0.0000 0.0000 -31.5193 0.0000 0.0000 -47.7105 0.0000 -6.9390 -85.2691 -0.0000 -0.0000 -34.4307 -0.0000 0.0000 -45.6761 -0.1894 -5.3596 -58.9042 0.0000 0.0000 -39.0498 -0.0000 -0.0000 16.8059 2.0509 5.1552 29.9431 0.2843 4.4710 -0.0000 -0.0000 113.5775 -8.9509 4.1563 41.3265 4.4454 -3.8478 -5.1399 6.2965 10.0025 -14.6575 -2.3797 -1.2149 32.3370 50.9876 2.4577 6.3717 55.9591 0.0000 -0.0000 35.5603 -0.0000 0.0000 57.7905 0.0007 8.0670 68.4953 0.0000 0.0000 59.5221 -0.0000 -0.0000 71.6102 -0.0000 7.9616 70.4671 0.0000 -0.0000 47.4160 0.0000 0.0000 77.8296 0.0001 6.3366 77.4005 0.0000 -0.0000 71.8848 0.0000 -0.0000 -68.8584 0.9315 -1.3533 45.5659 7.0213 -1.9979 -3.3157 1.0212 -11.2238 -1.0992 0.0000 0.0000 4.0218 -4.1483 -0.4573 65.7512 7.7816 -1.1337 11.3434 0.8914 14.0836 -13.5685 0.0000 0.0000 
1.7522 84.8401 95.9252 6.3656 18.6790 4.7890 11.0903 7.6067 -7.5395 1.8477 2.3831 -1.2191 1.8289 2.3724 -1.2684 -5.8418 -3.2332 0.6051 -0.0000 0.0000 -0.0000 -21.8616 -18.3207 4.1331 -17.2510 1.3189 -2.1087 -49.0090 14.4203 24.9906 0.0000 0.0000 -79.6956 15.1643 -15.3745 18.6361 13.9430 -2.0504 3.9921 -16.8339 2.1989 16.2226 18.3033 1.7745 -30.1143 -40.4740 0.0001 -14.0453 -70.8588 0.0000 0.0000 -39.7734 0.0000 -0.0000 0.8760 6.0083 -13.5354 -84.9412 0.0000 -0.0000 -31.9068 0.0000 -0.0000 -49.6837 -0.0004 -7.2201 -85.9486 -0.0000 -0.0000 -35.7692 0.0000 0.0000 -46.2306 -0.0003 -6.3143 -59.4161 0.0000 -0.0000 -40.4299 -0.0000 -0.0000 17.8977 1.8523 4.0301 36.6621 12.3543 -0.7793 -0.0000 -0.0000 99.5940 -10.2445 5.0572 43.8854 4.4454 -3.8478 -5.1399 8.9857 9.9973 -19.7588 -4.1677 -0.4673 33.9590 48.9035 2.2764 5.7197 56.5885 0.0000 0.0000 35.8747 -0.0000 0.0000 56.5556 0.0007 9.5127 69.4268 0.0000 -0.0000 58.9362 0.0000 0.0000 71.3714 0.0000 7.9164 70.7502 -0.0000 0.0000 46.5431 0.0000 -0.0000 78.8234 -0.4023 5.7377 76.6913 -0.0000 -0.0000 71.0220 0.0000 0.0000 -63.0542 2.8140 -0.5118 51.3925 9.9326 -2.9616 -7.9882 0.9440 -4.3051 -1.1996 0.0000 -0.0000 -4.8919 -4.2278 -2.1402 90.7760 1.4450 -0.3079 11.9043 0.6037 8.5511 -18.8483 0.0000 0.0000 
2.1055 83.1047 108.2336 7.3616 18.0612 6.1049 12.3390 4.7576 -8.6985 1.8949 1.6997 -1.5217 1.8711 1.7020 -1.5633 -5.8027 -2.9405 0.5879 -0.0000 0.0000 -0.0000 -22.6549 -16.9891 6.5841 -20.0253 1.6658 -2.9135 -44.5642 14.7076 4.2042 -0.0000 0.0000 -74.4005 16.8517 -20.3002 17.4391 13.9430 -2.0504 3.9921 -17.0013 2.1625 16.5720 19.7274 1.7336 -30.9784 -44.0549 0.0004 -13.9276 -70.4859 -0.0000 0.0000 -40.9811 0.0000 0.0000 -3.1361 5.9583 -13.3503 -84.8738 0.0000 0.0000 -31.9952 -0.0000 -0.0000 -52.0888 0.0001 -7.3334 -86.3729 0.0000 0.0000 -37.1141 -0.0000 -0.0000 -46.4705 -0.0002 -7.4917 -60.2336 0.0000 0.0000 -41.7168 -0.0000 -0.0000 17.9947 1.4851 2.5222 47.0405 18.7662 -5.7829 -0.0000 0.0000 81.4789 -10.9427 5.1977 40.0259 4.4454 -3.8478 -5.1399 8.9357 9.9883 -19.6689 -3.8311 -0.5446 33.7516 49.2349 1.6608 4.1212 59.3230 0.0000 -0.0000 35.9491 -0.0000 -0.0000 56.1425 -0.0002 10.4598 71.3341 0.0000 0.0000 55.7282 0.0000 0.0000 71.7929 -0.0001 7.9936 73.1506 0.0000 -0.0000 43.4650 0.0000 0.0000 78.9932 -0.6744 5.4609 77.3762 0.0000 -0.0000 69.8362 -0.0000 -0.0000 -58.9599 3.9289 -1.0730 62.8913 8.3301 -3.0819 -21.2106 1.3614 -2.3627 -1.4106 0.0000 -0.0000 -19.2562 -4.0647 -5.1049 115.8555 0.0359 0.4307 6.3465 0.1862 6.9499 -13.6446 0.0000 -0.0000 
